<?xml version="1.0" standalone="no"?>
<!DOCTYPE svg PUBLIC "-//W3C//DTD SVG 20010904//EN"
 "http://www.w3.org/TR/2001/REC-SVG-20010904/DTD/svg10.dtd">
<svg version="1.0" xmlns="http://www.w3.org/2000/svg"
 width="200.000000pt" height="200.000000pt" viewBox="0 0 200.000000 200.000000"
 preserveAspectRatio="xMidYMid meet">
<metadata>
Created by potrace 1.14, written by Peter Selinger 2001-2017
</metadata>
<g transform="translate(0.000000,200.000000) scale(0.100000,-0.100000)"
fill="#000000" stroke="none">
<path d="M871 1919 c-222 -29 -453 -161 -595 -339 -228 -289 -267 -666 -104
-997 169 -342 552 -550 929 -504 124 15 208 40 317 95 342 169 548 551 503
927 -22 184 -86 337 -197 479 -200 252 -525 382 -853 339z m291 -174 c225 -47
425 -200 527 -402 12 -24 27 -43 33 -43 41 0 62 -68 31 -102 -35 -39 -105 -5
-101 50 3 41 -59 149 -131 224 -57 62 -170 148 -192 148 -5 0 -9 -43 -9 -96
l0 -96 -62 -64 c-62 -65 -62 -65 -46 -92 17 -27 17 -27 152 -30 l136 -3 0 -74
0 -75 99 0 c79 0 100 3 105 15 6 17 51 21 61 5 12 -20 5 -210 -11 -281 -81
-363 -416 -618 -784 -596 -122 7 -193 26 -306 82 -150 74 -307 240 -360 382
-9 26 -25 56 -35 65 -57 56 -8 130 66 102 25 -10 36 -48 23 -81 -9 -24 -7 -37
10 -77 12 -26 26 -46 31 -44 5 1 48 36 95 76 l86 73 0 110 0 109 90 0 90 0 0
60 0 60 -60 0 -60 0 0 60 0 61 -142 -3 -142 -3 -19 -60 c-10 -33 -22 -105 -25
-160 l-7 -100 -32 -3 -33 -3 0 49 c0 73 26 209 54 279 43 111 87 176 180 268
116 116 243 184 397 214 70 14 218 12 291 -4z"/>
<path d="M935 1696 c-5 -3 -31 -7 -57 -11 l-48 -6 0 -109 0 -109 58 -3 57 -3
3 -62 3 -63 87 0 88 0 62 63 62 63 0 100 0 101 -61 18 c-57 16 -231 30 -254
21z"/>
<path d="M682 1616 c-119 -65 -203 -142 -273 -253 l-21 -33 126 0 126 0 0 65
0 65 60 0 60 0 0 95 c0 52 -3 95 -7 95 -5 0 -36 -16 -71 -34z"/>
<path d="M700 1300 l0 -90 90 0 90 0 0 90 0 90 -90 0 -90 0 0 -90z"/>
<path d="M950 1210 l0 -60 -60 0 -59 0 -3 -92 -3 -93 -92 -3 -93 -3 0 -57 c0
-57 1 -58 60 -117 l60 -59 0 57 0 57 155 0 155 0 0 -90 0 -90 62 0 62 0 58 57
58 57 0 78 0 77 -57 3 -58 3 -3 124 c-3 119 -4 125 -33 167 l-30 44 -89 0 -90
0 0 -60z"/>
<path d="M1250 1090 l0 -90 95 0 95 0 0 90 0 90 -95 0 -95 0 0 -90z"/>
<path d="M1498 978 l-3 -43 -57 -3 -58 -3 0 -76 c0 -66 -3 -79 -25 -105 -14
-17 -25 -34 -23 -38 2 -4 48 -47 102 -96 l99 -87 29 34 c77 92 147 285 148
407 l0 52 -104 0 -105 0 -3 -42z"/>
<path d="M830 690 l0 -90 90 0 90 0 0 90 0 90 -90 0 -90 0 0 -90z"/>
<path d="M538 689 c-46 -39 -89 -76 -95 -83 -10 -9 -4 -22 30 -63 85 -104 224
-193 357 -229 102 -28 282 -24 382 8 89 30 188 82 240 130 l37 33 -99 88 c-54
48 -102 87 -105 87 -3 0 -18 -13 -32 -30 -24 -29 -28 -30 -104 -30 l-79 0 0
-35 0 -36 -152 3 -153 3 -3 50 c-3 46 -8 55 -65 113 -34 34 -65 62 -69 62 -4
0 -44 -32 -90 -71z"/>
</g>
</svg>
